<svg width="139" height="65" viewBox="0 0 139 65" fill="none" xmlns="http://www.w3.org/2000/svg">
<path d="M2.27434 64.938C1.79834 64.938 1.42434 64.802 1.15234 64.53C0.880344 64.326 0.880344 64.156 1.15234 64.02C2.64834 63.748 3.94034 63.204 5.02834 62.388C6.11634 61.504 7.00034 60.416 7.68034 59.124C9.10834 56.744 10.5023 54.364 11.8623 51.984C13.2223 49.536 14.5483 47.088 15.8403 44.64L25.6323 26.586C27.1963 23.798 28.5563 21.112 29.7123 18.528C30.9363 15.944 31.8883 14.074 32.5683 12.918C33.0443 12.034 33.8603 11.252 35.0163 10.572C36.2403 9.824 37.4303 9.246 38.5863 8.838C38.1783 8.838 37.7703 8.838 37.3623 8.838C36.9543 8.77 36.5123 8.736 36.0363 8.736C33.9283 8.736 31.6163 8.872 29.1003 9.144C26.6523 9.348 24.2383 9.688 21.8583 10.164C19.5463 10.64 17.5063 11.286 15.7383 12.102C13.9703 12.918 12.7803 13.904 12.1683 15.06C11.8963 15.672 11.6583 16.284 11.4543 16.896C11.2503 17.508 11.1483 18.12 11.1483 18.732C11.1483 20.296 11.6923 21.418 12.7803 22.098C12.8483 22.098 12.8823 22.166 12.8823 22.302C12.8823 22.438 12.7463 22.574 12.4743 22.71C12.2703 22.846 12.0663 22.88 11.8623 22.812C11.2503 22.472 10.5023 21.656 9.61834 20.364C8.73434 19.004 8.19034 17.882 7.98634 16.998C7.78234 16.182 7.68034 15.434 7.68034 14.754C7.68034 12.986 8.25834 11.626 9.41434 10.674C10.5703 9.654 12.0323 8.94 13.8003 8.532C15.5683 8.056 17.3703 7.784 19.2063 7.71599C21.1103 7.58 22.7763 7.512 24.2043 7.512C26.3803 7.512 28.9643 7.512 31.9563 7.512C34.9483 7.444 37.7023 7.41 40.2183 7.41C40.8303 7.41 41.5103 7.41 42.2583 7.41C43.0063 7.342 43.7883 7.308 44.6043 7.308C46.4403 7.308 48.3443 7.41 50.3163 7.614C52.2883 7.818 54.0903 8.26 55.7223 8.94C57.3543 9.62 58.6123 10.674 59.4963 12.102C60.3803 13.598 60.8223 15.23 60.8223 16.998C60.8223 18.698 60.4823 20.398 59.8023 22.098C59.1223 23.798 58.3063 25.26 57.3543 26.484C56.7423 27.232 56.0283 27.98 55.2123 28.728C54.3963 29.476 53.4783 30.19 52.4583 30.87C51.4383 31.55 50.3163 32.196 49.0923 32.808C47.9363 33.352 46.5423 33.794 44.9103 34.134C44.8423 34.134 44.7743 34.236 44.7063 34.44C44.7063 34.644 44.7743 34.746 44.9103 34.746C45.2503 34.814 45.8283 34.916 46.6443 35.052C47.5283 35.12 48.3103 35.222 48.9903 35.358C51.3703 35.834 53.3423 36.854 54.9063 38.418C56.5383 39.914 57.3543 41.954 57.3543 44.538C57.3543 47.462 56.5723 50.148 55.0083 52.596C53.5123 55.044 51.5743 57.152 49.1943 58.92C46.8143 60.62 44.3323 61.946 41.7483 62.898C38.4843 64.122 34.7443 64.734 30.5283 64.734C28.0123 64.734 25.3943 64.496 22.6743 64.02C19.9543 63.544 17.4723 62.728 15.2283 61.572C14.7523 61.3 14.2763 61.096 13.8003 60.96C13.3243 60.756 12.8143 60.654 12.2703 60.654C11.3183 60.654 10.2983 60.926 9.21034 61.47C8.53034 61.742 7.64634 62.252 6.55834 63C5.47034 63.748 4.24634 64.36 2.88634 64.836C2.75034 64.904 2.54634 64.938 2.27434 64.938ZM27.2643 63.306C29.0323 63.306 30.8003 63.136 32.5683 62.796C34.3363 62.388 35.9343 61.912 37.3623 61.368C39.8783 60.416 42.1903 59.09 44.2983 57.39C46.4063 55.622 48.1063 53.548 49.3983 51.168C50.7583 48.72 51.4383 46 51.4383 43.008C51.4383 41.036 50.9283 39.54 49.9083 38.52C48.8883 37.432 47.5963 36.684 46.0323 36.276C44.4683 35.868 42.8363 35.664 41.1363 35.664C39.8443 35.664 38.6203 35.732 37.4643 35.868C36.3083 36.004 35.2543 36.174 34.3023 36.378C32.3983 36.718 30.6983 37.092 29.2023 37.5C28.9303 37.364 28.9643 37.126 29.3043 36.786C29.6443 36.378 30.0863 35.936 30.6303 35.46C31.2423 34.984 31.7183 34.61 32.0583 34.338C32.1943 34.202 32.4663 33.998 32.8743 33.726C33.3503 33.386 33.7243 33.216 33.9963 33.216C37.3283 33.216 40.2863 33.012 42.8703 32.604C45.5223 32.196 47.8003 31.21 49.7043 29.646C51.6083 28.014 53.1723 25.498 54.3963 22.098C55.0083 20.33 55.3143 18.596 55.3143 16.896C55.3143 14.924 54.8383 13.224 53.8863 11.796C52.9343 10.3 51.4043 9.416 49.2963 9.144C49.0243 9.076 48.7183 9.042 48.3783 9.042C48.0383 9.042 47.6983 9.042 47.3583 9.042C46.0663 9.042 44.6383 9.212 43.0743 9.552C41.5783 9.89199 40.4563 10.538 39.7083 11.49C38.0083 13.734 36.3763 16.284 34.8123 19.14C33.2483 21.928 31.7523 24.784 30.3243 27.708C28.8963 30.564 27.5363 33.25 26.2443 35.766C24.6803 38.826 23.0823 41.92 21.4503 45.048C19.8183 48.176 18.2203 51.338 16.6563 54.534C16.2483 55.35 16.0443 56.132 16.0443 56.88C16.0443 58.24 16.8943 59.566 18.5943 60.858C19.7503 61.742 21.0763 62.388 22.5723 62.796C24.1363 63.136 25.7003 63.306 27.2643 63.306ZM75.7677 63.306C75.0877 63.306 74.5097 63.17 74.0337 62.898C73.5577 62.626 73.3197 62.116 73.3197 61.368C73.3197 60.416 73.5577 59.328 74.0337 58.104C74.5097 56.88 75.0537 55.69 75.6657 54.534C76.2777 53.31 76.8217 52.324 77.2977 51.576C74.9177 54.092 72.4357 56.472 69.8517 58.716C68.5597 59.804 67.1317 60.824 65.5677 61.776C64.0037 62.728 62.3377 63.204 60.5697 63.204C59.8897 63.204 59.4137 63 59.1417 62.592C58.8697 62.116 58.7337 61.572 58.7337 60.96C58.7337 60.62 58.7677 60.382 58.8357 60.246C59.1757 57.594 60.0257 54.84 61.3857 51.984C62.7457 49.128 64.4117 46.442 66.3837 43.926C68.3557 41.41 70.3617 39.37 72.4017 37.806C74.7137 36.038 77.2637 35.154 80.0517 35.154H91.7817C92.1217 35.154 92.2917 35.29 92.2917 35.562C92.2917 36.106 91.9857 36.378 91.3737 36.378C90.6937 36.378 90.0137 36.82 89.3337 37.704C88.6537 38.52 88.1437 39.2 87.8037 39.744C87.3277 40.492 86.5797 41.75 85.5597 43.518C84.5397 45.286 83.4857 47.224 82.3977 49.332C81.3777 51.372 80.4937 53.276 79.7457 55.044C78.9977 56.812 78.6237 58.104 78.6237 58.92C78.6237 59.872 79.0997 60.348 80.0517 60.348C81.0717 60.348 82.2277 59.872 83.5197 58.92C84.8117 57.968 86.1037 56.812 87.3957 55.452C88.7557 54.024 89.9797 52.63 91.0677 51.27C92.2237 49.842 93.1417 48.72 93.8217 47.904C94.2297 48.312 94.1957 48.89 93.7197 49.638C93.3117 50.318 92.9377 50.862 92.5977 51.27C91.2377 53.038 89.6737 54.874 87.9057 56.778C86.1377 58.614 84.1997 60.178 82.0917 61.47C80.0517 62.694 77.9437 63.306 75.7677 63.306ZM64.7517 59.736C65.5677 59.736 66.6897 59.158 68.1177 58.002C69.6137 56.778 71.2117 55.282 72.9117 53.514C74.6117 51.678 76.2097 49.774 77.7057 47.802C79.2017 45.762 80.4257 43.926 81.3777 42.294C82.3977 40.594 82.9077 39.302 82.9077 38.418C82.9077 37.67 82.6697 37.16 82.1937 36.888C81.7857 36.616 81.2417 36.48 80.5617 36.48C79.4737 36.48 78.2837 36.888 76.9917 37.704C75.7677 38.452 74.7817 39.2 74.0337 39.948C73.2177 40.696 72.2317 41.886 71.0757 43.518C69.9877 45.082 68.8997 46.816 67.8117 48.72C66.7237 50.624 65.8057 52.46 65.0577 54.228C64.3097 55.996 63.9357 57.424 63.9357 58.512C63.9357 59.328 64.2077 59.736 64.7517 59.736ZM98.6102 63.204C96.5702 63.204 95.1762 62.728 94.4282 61.776C93.6802 60.756 93.3062 59.532 93.3062 58.104C93.3062 56.2 93.7142 54.16 94.5302 51.984C95.4142 49.808 96.1282 48.108 96.6722 46.884C95.7882 47.836 94.9382 48.754 94.1222 49.638C93.3062 50.522 92.7282 51.168 92.3882 51.576C92.1842 51.848 92.0142 51.984 91.8782 51.984C91.7422 51.984 91.6742 51.814 91.6742 51.474C91.6742 50.93 91.8442 50.42 92.1842 49.944C93.1362 48.72 94.2242 47.428 95.4482 46.068C96.6722 44.708 97.8622 43.28 99.0182 41.784C100.378 39.268 101.874 36.344 103.506 33.012C105.206 29.612 106.94 26.144 108.708 22.608C110.544 19.004 112.312 15.706 114.012 12.714C115.78 9.654 117.344 7.206 118.704 5.37C119.86 4.894 120.948 4.282 121.968 3.534C123.056 2.786 124.11 2.106 125.13 1.494C126.218 0.813996 127.34 0.473996 128.496 0.473996C129.244 0.473996 129.788 0.677996 130.128 1.08599C130.536 1.494 130.808 1.97 130.944 2.51399C131.012 2.718 131.046 3.092 131.046 3.636C131.046 5.2 130.502 7.104 129.414 9.348C128.394 11.592 127.17 13.802 125.742 15.978C124.382 18.086 123.192 19.82 122.172 21.18C119.452 24.988 116.664 28.456 113.808 31.584C110.952 34.644 108.368 37.228 106.056 39.336C103.812 41.376 102.18 42.872 101.16 43.824C100.684 44.708 100.106 45.898 99.4262 47.394C98.8142 48.822 98.2702 50.352 97.7942 51.984C97.3182 53.548 97.0802 55.01 97.0802 56.37C97.0802 57.526 97.3522 58.512 97.8962 59.328C98.4402 60.076 99.3582 60.45 100.65 60.45C100.854 60.45 101.058 60.45 101.262 60.45C101.466 60.45 101.704 60.416 101.976 60.348C103.132 60.144 104.39 59.498 105.75 58.41C107.11 57.322 108.47 56.064 109.83 54.636C111.19 53.208 112.414 51.848 113.502 50.556C113.978 50.012 114.42 49.502 114.828 49.026C115.236 48.482 115.508 48.108 115.644 47.904C116.12 48.38 116.086 48.992 115.542 49.74C115.066 50.42 114.658 50.998 114.318 51.474C113.842 52.086 113.162 52.936 112.278 54.024C111.394 55.044 110.374 56.166 109.218 57.39C107.926 58.682 106.328 59.974 104.424 61.266C102.52 62.558 100.582 63.204 98.6102 63.204ZM102.894 39.744C105.002 37.976 107.654 35.46 110.85 32.196C114.114 28.864 117.31 24.852 120.438 20.16C120.778 19.616 121.322 18.698 122.07 17.406C122.886 16.114 123.702 14.652 124.518 13.02C125.402 11.32 126.15 9.688 126.762 8.124C127.374 6.492 127.68 5.098 127.68 3.94199C127.68 2.854 127.374 2.31 126.762 2.31C126.014 2.31 125.028 2.956 123.804 4.248C122.376 5.744 120.744 7.954 118.908 10.878C117.14 13.734 115.27 16.93 113.298 20.466C111.326 24.002 109.422 27.47 107.586 30.87C105.818 34.27 104.254 37.228 102.894 39.744ZM134.909 24.036C133.957 24.036 133.277 23.73 132.869 23.118C132.597 22.778 132.461 22.336 132.461 21.792C132.461 20.704 132.971 19.82 133.991 19.14C134.739 18.732 135.419 18.528 136.031 18.528C137.051 18.528 137.765 18.834 138.173 19.446C138.445 19.786 138.581 20.228 138.581 20.772C138.581 21.86 138.037 22.744 136.949 23.424C136.337 23.832 135.657 24.036 134.909 24.036ZM117.161 63.306C116.481 63.306 115.903 63.17 115.427 62.898C115.019 62.626 114.815 62.116 114.815 61.368C114.815 60.416 115.053 59.294 115.529 58.002C116.073 56.71 116.651 55.418 117.263 54.126C117.943 52.834 118.453 51.78 118.793 50.964C119.269 50.012 119.847 48.788 120.527 47.292C121.275 45.728 121.955 44.266 122.567 42.906C123.247 41.478 123.723 40.492 123.995 39.948C123.043 40.968 121.887 42.26 120.527 43.824C119.235 45.32 118.011 46.782 116.855 48.21C115.699 49.638 114.815 50.76 114.203 51.576C113.999 51.848 113.829 51.984 113.693 51.984C113.557 51.984 113.489 51.814 113.489 51.474C113.489 50.93 113.659 50.42 113.999 49.944C115.291 48.312 116.719 46.476 118.283 44.436C119.915 42.396 121.377 40.526 122.669 38.826C123.961 37.058 124.777 35.902 125.117 35.358C125.865 35.222 126.953 35.018 128.381 34.746C129.877 34.474 130.897 34.1 131.441 33.624C131.645 33.42 131.849 33.318 132.053 33.318C132.189 33.318 132.257 33.454 132.257 33.726C132.325 33.93 132.257 34.168 132.053 34.44C131.645 34.916 130.931 36.072 129.911 37.908C128.891 39.744 127.803 41.784 126.647 44.028C125.559 46.204 124.539 48.176 123.587 49.944C122.635 51.78 121.819 53.548 121.139 55.248C120.459 56.948 120.119 58.172 120.119 58.92C120.119 59.872 120.595 60.348 121.547 60.348C122.431 60.348 123.553 59.804 124.913 58.716C126.341 57.628 127.769 56.336 129.197 54.84C130.625 53.276 131.883 51.848 132.971 50.556C133.311 50.148 133.719 49.672 134.195 49.128C134.739 48.516 135.079 48.142 135.215 48.006C135.351 48.142 135.419 48.38 135.419 48.72C135.351 49.196 135.181 49.672 134.909 50.148C134.637 50.556 134.365 50.93 134.093 51.27C132.665 53.038 131.101 54.874 129.401 56.778C127.701 58.614 125.831 60.178 123.791 61.47C121.751 62.694 119.541 63.306 117.161 63.306Z" fill="#4F4A4A"/>
</svg>
