<svg width="300" height="230" viewBox="0 0 300 230" fill="none" xmlns="http://www.w3.org/2000/svg">
<g clip-path="url(#clip0_9_99)">
<path d="M218.85 111.29C226.303 122.517 233.937 133.417 241.75 143.99C243.85 146.84 248.76 146.09 251.66 145.96C252.853 145.907 253.077 145.417 252.33 144.49L229.82 116.56" stroke="#F2F2F2" stroke-width="2"/>
<path d="M221.01 105.66C219.837 104.493 218.637 103.523 217.41 102.75C217.217 102.63 217.093 102.49 217.04 102.33C216.98 102.15 216.953 101.95 216.96 101.73" stroke="#F2F2F2" stroke-width="2"/>
<path d="M214.48 98.77C214.313 98.35 214.23 97.9167 214.23 97.47C214.237 97.1367 214.133 96.84 213.92 96.58C190.853 68.06 172.39 44.6034 158.53 26.21C157.717 25.1367 156.897 24.3734 156.07 23.92C155.337 23.5267 155.217 23.6667 155.71 24.34L209.9 98.84" stroke="#F2F2F2" stroke-width="2"/>
<path d="M214.48 98.77L209.9 98.84" stroke="#87958D" stroke-width="2"/>
<path d="M216.96 101.73L216.77 101.95C216.703 102.03 216.64 102.023 216.58 101.93C215.133 99.6833 213.187 99.1667 210.74 100.38C210.459 100.519 210.219 100.729 210.044 100.989C209.869 101.249 209.764 101.549 209.74 101.862C209.715 102.174 209.773 102.488 209.906 102.771C210.039 103.055 210.244 103.299 210.5 103.48C212.42 104.833 214.573 106.183 216.96 107.53C217.907 108.063 218.537 109.317 218.85 111.29" stroke="#87958D" stroke-width="2"/>
<path d="M229.82 116.56C223.4 115.5 220.463 111.867 221.01 105.66" stroke="#87958D" stroke-width="2"/>
<path d="M75.8 108.32C74.0133 109.593 72.84 110.583 72.28 111.29C63.2467 122.557 54.23 133.837 45.23 145.13C45.176 145.196 45.1416 145.276 45.1306 145.361C45.1197 145.446 45.1326 145.532 45.1679 145.61C45.2032 145.688 45.2595 145.755 45.3306 145.802C45.4016 145.85 45.4845 145.877 45.57 145.88L53.07 146.25C53.6033 146.278 54.135 146.171 54.6158 145.938C55.0965 145.706 55.5108 145.355 55.82 144.92L75.89 116.78" stroke="#F2F2F2" stroke-width="2"/>
<path d="M80.17 109.52C82.53 108.32 84.4134 105.927 85.82 102.34" stroke="#F2F2F2" stroke-width="2"/>
<path d="M86.27 100.74C86.51 99.94 87.0533 99.4167 87.9 99.17C88.2133 99.0833 88.4633 98.9067 88.65 98.64L139.12 28.58C139.154 28.5343 139.173 28.4797 139.176 28.423C139.179 28.3662 139.166 28.3099 139.137 28.2609C139.108 28.2119 139.066 28.1724 139.015 28.1474C138.964 28.1223 138.906 28.1128 138.85 28.12C138.297 28.1733 137.693 28.6433 137.04 29.53C123.867 47.4033 106.743 69.0367 85.67 94.43C84.45 95.9033 83.9566 97.38 84.19 98.86" stroke="#F2F2F2" stroke-width="2"/>
<path d="M86.2699 100.74C86.4966 98.7867 85.8033 98.16 84.1899 98.86" stroke="#87958D" stroke-width="2"/>
<path d="M85.82 102.34L85.21 100.75C85.0633 100.363 84.7833 100.163 84.37 100.15L80.58 99.97C80.2333 99.9567 80.0633 100.123 80.07 100.47L80.17 109.52" stroke="#87958D" stroke-width="2"/>
<path d="M75.89 116.78L75.8 108.32" stroke="#87958D" stroke-width="2"/>
<path d="M155.25 115.94L157.5 115.92" stroke="#F2F2F2" stroke-width="2"/>
<path d="M157.5 115.52L155.5 115.54" stroke="#F2F2F2" stroke-width="2"/>
<path d="M155.5 115.54L155.25 115.94" stroke="#87958D" stroke-width="2"/>
<path d="M157.5 115.92V115.52" stroke="#87958D" stroke-width="2"/>
<path d="M194.51 99.47L197.02 99.45" stroke="#F2F2F2" stroke-width="2"/>
<path d="M197 99.02L194.24 99.03" stroke="#F2F2F2" stroke-width="2"/>
<path d="M194.24 99.03L194.51 99.47" stroke="#87958D" stroke-width="2"/>
<path d="M197 99.02L197.02 99.45" stroke="#87958D" stroke-width="2"/>
<path d="M214.48 98.77L209.9 98.84L155.71 24.34C155.217 23.6667 155.337 23.5267 156.07 23.92C156.897 24.3734 157.717 25.1367 158.53 26.21C172.39 44.6034 190.853 68.06 213.92 96.58C214.133 96.84 214.237 97.1367 214.23 97.47C214.23 97.9167 214.313 98.35 214.48 98.77Z" fill="#E5E5E5"/>
<path d="M86.27 100.74C86.4966 98.7867 85.8033 98.16 84.19 98.86C83.9566 97.38 84.45 95.9033 85.67 94.43C106.743 69.0367 123.867 47.4033 137.04 29.53C137.693 28.6433 138.297 28.1733 138.85 28.12C138.906 28.1128 138.964 28.1223 139.015 28.1474C139.066 28.1724 139.108 28.2119 139.137 28.2609C139.166 28.3099 139.179 28.3662 139.176 28.423C139.173 28.4797 139.154 28.5343 139.12 28.58L88.65 98.64C88.4633 98.9067 88.2133 99.0833 87.9 99.17C87.0533 99.4167 86.51 99.94 86.27 100.74Z" fill="#E5E5E5"/>
<path d="M45.01 114.84C48.17 115.4 52.67 114.93 53.27 110.9C53.29 110.753 53.37 110.703 53.51 110.75C53.5967 110.783 53.6833 110.813 53.77 110.84C53.8367 110.86 53.8667 110.907 53.86 110.98L53.11 115.35C53.0827 115.505 53.0023 115.646 52.8822 115.75C52.7621 115.854 52.6096 115.914 52.45 115.92L39.25 116.22C38.87 116.233 38.81 116.1 39.07 115.82L39.93 114.9C40.1367 114.68 40.24 114.42 40.24 114.12C40.2533 108.82 40.2567 103.527 40.25 98.24C40.25 97.4867 39.88 96.91 39.14 96.51C38.66 96.25 38.6967 96.1167 39.25 96.11L51.75 95.92C52.1433 95.9133 52.3467 96.1033 52.36 96.49L52.48 99.23C52.4946 99.3056 52.4785 99.3839 52.4354 99.4476C52.3923 99.5114 52.3256 99.5554 52.25 99.57C52.1744 99.5846 52.0961 99.5686 52.0324 99.5254C51.9686 99.4823 51.9246 99.4156 51.91 99.34L51.44 98.02C51.2867 97.5933 50.98 97.3767 50.52 97.37L45.21 97.29C44.7367 97.2833 44.5 97.5133 44.5 97.98V104.94C44.5 105.2 44.6233 105.377 44.87 105.47C47.3367 106.363 49.24 105.907 50.58 104.1C50.6867 103.96 50.76 103.977 50.8 104.15C51.1133 105.597 51.1033 107.017 50.77 108.41C50.6233 109.05 50.4367 109.063 50.21 108.45L49.88 107.55C49.7333 107.15 49.4467 106.95 49.02 106.95L45.04 106.93C44.68 106.93 44.5 107.107 44.5 107.46V114.24C44.5 114.58 44.67 114.78 45.01 114.84Z" fill="#294535"/>
<path d="M155.5 115.54L155.25 115.94L149.47 116.24C149.37 116.243 149.272 116.212 149.192 116.152C149.112 116.092 149.055 116.007 149.03 115.91L147.88 111.28C147.767 110.827 147.477 110.593 147.01 110.58L141.48 110.48C141.14 110.473 140.867 110.607 140.66 110.88C139.54 112.34 139.143 113.95 139.47 115.71C139.543 116.117 139.373 116.31 138.96 116.29L136.03 116.14C135.543 116.12 135.47 115.933 135.81 115.58C136.47 114.89 137.02 114.5 137.41 113.6C139.883 107.753 142.45 101.953 145.11 96.2C145.283 95.82 145.457 95.82 145.63 96.2C148.383 102.093 151.09 107.99 153.75 113.89C154.11 114.68 154.78 115.17 155.5 115.54ZM141.38 109.02C141.361 109.071 141.354 109.125 141.36 109.179C141.367 109.233 141.386 109.285 141.416 109.33C141.446 109.375 141.487 109.412 141.535 109.438C141.582 109.464 141.636 109.479 141.69 109.48L146.51 109.52C146.565 109.52 146.62 109.507 146.668 109.482C146.717 109.456 146.759 109.419 146.791 109.374C146.822 109.329 146.842 109.277 146.849 109.222C146.856 109.167 146.849 109.112 146.83 109.06L144.47 102.85C144.447 102.784 144.405 102.726 144.348 102.685C144.292 102.644 144.224 102.621 144.153 102.62C144.083 102.619 144.015 102.639 143.957 102.679C143.899 102.718 143.855 102.774 143.83 102.84L141.38 109.02Z" fill="#294535"/>
<path d="M86.2699 100.74C86.3499 101.933 86.1999 102.467 85.82 102.34L85.2099 100.75C85.0633 100.363 84.7833 100.163 84.37 100.15L80.58 99.97C80.2333 99.9567 80.0633 100.123 80.0699 100.47L80.1699 109.52C79.6166 111.82 79.7966 113.943 80.7099 115.89C80.8499 116.197 80.7566 116.307 80.4299 116.22C78.7633 115.767 77.2499 115.953 75.8899 116.78L75.8 108.32L75.7499 100.87C75.7499 100.563 75.6066 100.357 75.3199 100.25C72.8466 99.35 71.04 99.9367 69.9 102.01C69.8133 102.163 69.7633 102.153 69.7499 101.98L69.61 99.33C69.59 98.97 69.7633 98.79 70.1299 98.79L84.19 98.86C85.8033 98.16 86.4966 98.7867 86.2699 100.74Z" fill="#294535"/>
<path d="M60.37 103.41C63.58 105.65 70 107.91 67.97 113.01C65.62 118.9 52.78 116.62 56.89 111.48C57.1566 111.147 57.33 111.193 57.41 111.62C58.16 115.55 64.37 116.96 65.11 113.3C65.2015 112.848 65.1585 112.38 64.9861 111.951C64.8138 111.523 64.5196 111.154 64.14 110.89C62.27 109.61 57.64 107.18 57.03 105.04C54.99 97.84 62.11 98.74 66.32 98.75C66.8266 98.75 67.0567 99 67.01 99.5L66.87 101.18C66.83 101.647 66.6533 101.707 66.34 101.36C64.7266 99.5667 62.81 99.2334 60.59 100.36C60.3156 100.501 60.0819 100.71 59.9116 100.967C59.7413 101.224 59.6402 101.521 59.618 101.828C59.5959 102.135 59.6535 102.442 59.7852 102.719C59.917 102.996 60.1184 103.234 60.37 103.41Z" fill="#294535"/>
<path d="M88.81 115.44C88.93 115.387 89.0367 115.417 89.13 115.53C89.1782 115.59 89.208 115.663 89.2159 115.739C89.2239 115.816 89.2096 115.893 89.1747 115.962C89.1399 116.03 89.086 116.087 89.0196 116.126C88.9531 116.165 88.8769 116.183 88.8 116.18L84.99 115.93C84.5567 115.903 84.53 115.783 84.91 115.57C87.61 114.06 92.08 102.24 93.5 98.99C93.5317 98.9147 93.5847 98.8502 93.6525 98.8045C93.7203 98.7588 93.8 98.7339 93.8817 98.7328C93.9635 98.7318 94.0438 98.7546 94.1127 98.7985C94.1817 98.8424 94.2364 98.9055 94.27 98.98L101.84 114.82C101.903 114.95 101.992 115.066 102.1 115.16C102.208 115.255 102.334 115.326 102.47 115.37L103.01 115.54C103.057 115.555 103.098 115.587 103.124 115.629C103.151 115.671 103.161 115.721 103.154 115.77C103.147 115.82 103.122 115.865 103.085 115.898C103.048 115.931 103 115.949 102.95 115.95L97.19 116.13C96.7633 116.143 96.59 115.94 96.67 115.52C96.91 114.307 96.6767 113.207 95.97 112.22C95.77 111.94 95.4967 111.797 95.15 111.79L90.31 111.66C90.01 111.653 89.7533 111.763 89.54 111.99C88.6467 112.957 88.4033 114.107 88.81 115.44ZM93.07 105.14C93.0466 105.082 93.0064 105.031 92.9545 104.995C92.9026 104.96 92.8413 104.94 92.7783 104.939C92.7153 104.938 92.6534 104.955 92.6003 104.989C92.5472 105.023 92.5054 105.072 92.48 105.13L90.21 110.13C90.188 110.179 90.1789 110.233 90.1835 110.287C90.1881 110.341 90.2062 110.393 90.2361 110.438C90.266 110.483 90.3068 110.519 90.3547 110.544C90.4026 110.569 90.456 110.581 90.51 110.58L94.71 110.45C94.7606 110.448 94.8101 110.435 94.8544 110.41C94.8987 110.386 94.9365 110.351 94.9649 110.309C94.9932 110.267 95.0111 110.219 95.0172 110.169C95.0233 110.119 95.0174 110.068 95 110.02L93.07 105.14Z" fill="#294535"/>
<path d="M107.69 100.34C105.697 99.52 103.953 99.8067 102.46 101.2C102.153 101.48 102 101.413 102 101V99.46C102 99.1 102.18 98.9233 102.54 98.93L118.1 98.94C118.367 98.94 118.5 99.0767 118.5 99.35V101.5C118.5 101.9 118.367 101.953 118.1 101.66C116.727 100.113 114.943 99.5967 112.75 100.11C112.609 100.142 112.482 100.221 112.391 100.336C112.3 100.45 112.251 100.593 112.25 100.74V114.34C112.25 114.7 112.377 115.003 112.63 115.25L113 115.63C113.04 115.669 113.067 115.719 113.078 115.774C113.09 115.829 113.084 115.886 113.063 115.938C113.041 115.989 113.004 116.033 112.958 116.064C112.911 116.095 112.856 116.111 112.8 116.11L108.12 116.15C107.94 116.15 107.85 116.06 107.85 115.88L108.07 100.9C108.07 100.627 107.943 100.44 107.69 100.34Z" fill="#294535"/>
<path d="M126.5 106.83C128.373 107.383 130.01 107.137 131.41 106.09C131.637 105.923 131.75 105.98 131.75 106.26V109.23C131.75 109.53 131.633 109.587 131.4 109.4C130.08 108.313 128.51 107.907 126.69 108.18C126.277 108.24 126.063 108.477 126.05 108.89L125.89 114.15C125.877 114.49 126.037 114.707 126.37 114.8C129.757 115.72 132.293 114.78 133.98 111.98C134.233 111.567 134.317 111.597 134.23 112.07L133.58 115.51C133.552 115.664 133.47 115.804 133.35 115.905C133.229 116.005 133.077 116.06 132.92 116.06L121.5 116C121.067 116 120.977 115.827 121.23 115.48L121.65 114.92C121.883 114.593 122 114.23 122 113.83V100.32C122 100.154 121.955 99.9907 121.869 99.8479C121.782 99.7052 121.658 99.5883 121.51 99.51L120.98 99.23C120.767 99.1167 120.783 99.0567 121.03 99.05L132.56 98.88C132.827 98.8733 132.97 99.0033 132.99 99.27C133.063 100.223 132.93 101.147 132.59 102.04C132.443 102.42 132.317 102.413 132.21 102.02L131.84 100.62C131.753 100.3 131.54 100.133 131.2 100.12L126.79 99.95C126.263 99.93 126 100.183 126 100.71V106.16C126 106.507 126.167 106.73 126.5 106.83Z" fill="#294535"/>
<path d="M214.48 98.77C215.32 98.6167 215.99 98.6533 216.49 98.88C216.817 99.0333 216.977 99.29 216.97 99.65L216.96 101.73L216.77 101.95C216.703 102.03 216.64 102.023 216.58 101.93C215.133 99.6833 213.187 99.1667 210.74 100.38C210.459 100.519 210.219 100.729 210.044 100.989C209.869 101.249 209.764 101.549 209.74 101.862C209.715 102.174 209.773 102.488 209.906 102.771C210.039 103.055 210.244 103.299 210.5 103.48C212.42 104.833 214.573 106.183 216.96 107.53C217.907 108.063 218.537 109.317 218.85 111.29C217.903 114.003 216.683 115.553 215.19 115.94C211.74 116.83 205.25 117.35 206.9 111.41C206.915 111.346 206.952 111.29 207.005 111.251C207.058 111.212 207.122 111.192 207.188 111.196C207.253 111.199 207.315 111.226 207.363 111.27C207.411 111.315 207.442 111.375 207.45 111.44C207.94 115.02 212.61 116.7 214.94 114.21C215.159 113.976 215.323 113.696 215.419 113.391C215.516 113.086 215.544 112.763 215.499 112.445C215.455 112.128 215.341 111.825 215.165 111.557C214.988 111.29 214.754 111.065 214.48 110.9C212.807 109.88 211.15 108.767 209.51 107.56C205.86 104.89 205.78 101.1 209.9 98.84L214.48 98.77Z" fill="#294535"/>
<path d="M229.82 116.56C223.4 115.5 220.463 111.867 221.01 105.66C224.83 94.9 242.75 96.8 241.02 108.78C240.273 113.993 236.54 116.587 229.82 116.56ZM231.042 115.36C231.802 115.366 232.557 115.17 233.262 114.782C233.968 114.394 234.612 113.823 235.156 113.099C235.7 112.376 236.134 111.515 236.433 110.567C236.732 109.618 236.891 108.6 236.9 107.571C236.909 106.541 236.768 105.52 236.485 104.567C236.203 103.613 235.784 102.745 235.252 102.012C234.721 101.28 234.088 100.697 233.389 100.296C232.69 99.8963 231.939 99.6869 231.178 99.6803C230.418 99.6737 229.663 99.8699 228.958 100.258C228.252 100.646 227.608 101.217 227.064 101.941C226.52 102.664 226.086 103.525 225.787 104.473C225.488 105.422 225.329 106.44 225.32 107.47C225.311 108.499 225.452 109.52 225.735 110.473C226.017 111.427 226.436 112.295 226.968 113.028C227.499 113.76 228.132 114.344 228.831 114.744C229.53 115.144 230.281 115.353 231.042 115.36Z" fill="#294535"/>
<path d="M157.5 115.92V115.52C158.327 115.267 158.74 114.76 158.74 114C158.747 109.927 158.743 105.837 158.73 101.73C158.73 100.877 158.41 100.153 157.77 99.56C157.43 99.24 157.493 99.07 157.96 99.05C164.54 98.8 174.64 97.47 175.91 106.25C177.5 117.21 165.04 116.49 157.5 115.92ZM162.75 100.88V114.2C162.75 114.309 162.771 114.417 162.813 114.518C162.855 114.618 162.916 114.71 162.993 114.787C163.07 114.864 163.162 114.925 163.262 114.967C163.363 115.009 163.471 115.03 163.58 115.03H165.69C167.297 115.03 168.839 114.368 169.975 113.191C171.112 112.013 171.75 110.416 171.75 108.75V106.33C171.75 104.664 171.112 103.067 169.975 101.889C168.839 100.712 167.297 100.05 165.69 100.05H163.58C163.36 100.05 163.149 100.137 162.993 100.293C162.837 100.449 162.75 100.66 162.75 100.88Z" fill="#294535"/>
<path d="M194.24 99.03L194.51 99.47C194.01 99.7 193.62 99.88 193.37 100.42C190.97 105.473 188.54 110.59 186.08 115.77C185.907 116.13 185.733 116.13 185.56 115.77L177.39 99.38C177.263 99.1267 177.34 99 177.62 99H182.76C183.133 99 183.29 99.1833 183.23 99.55C182.84 101.91 185.39 106.59 186.69 109.34C186.877 109.72 187.067 109.723 187.26 109.35C188.633 106.71 189.823 104.03 190.83 101.31C191.11 100.57 191.05 100.3 190.8 99.58C190.667 99.2067 190.8 99.02 191.2 99.02L194.24 99.03Z" fill="#294535"/>
<path d="M194.24 99.03L197 99.02L197.02 99.45L194.51 99.47L194.24 99.03Z" fill="#E5E5E5"/>
<path d="M197 99.02L201.96 99C202.287 99 202.43 99.1633 202.39 99.49C201.73 104.897 201.753 110.303 202.46 115.71C202.513 116.143 202.327 116.343 201.9 116.31L198.07 116.05C197.783 116.03 197.657 115.877 197.69 115.59C198.137 111.283 198.17 106.417 197.79 100.99C197.723 100.09 197.467 99.5767 197.02 99.45L197 99.02Z" fill="#294535"/>
<path d="M252.5 100.58L249.81 100.18C249.21 100.087 248.917 100.343 248.93 100.95L249.26 115.59C249.267 116.03 249.05 116.25 248.61 116.25H245.22C244.773 116.25 244.577 116.03 244.63 115.59C245.21 110.263 245.227 104.933 244.68 99.6C244.647 99.28 244.793 99.11 245.12 99.09C248.92 98.87 256.6 97.91 257.81 102.13C258.55 104.717 257.69 106.687 255.23 108.04C254.943 108.2 254.903 108.407 255.11 108.66L260.63 115.67C260.737 115.81 260.703 115.893 260.53 115.92C254.88 116.95 252.93 112.6 251.19 108.33C251.03 107.937 251.13 107.627 251.49 107.4C253.803 105.927 254.35 103.817 253.13 101.07C253.074 100.941 252.987 100.829 252.877 100.743C252.767 100.657 252.637 100.601 252.5 100.58Z" fill="#294535"/>
<path d="M216.96 101.73C216.953 101.95 216.98 102.15 217.04 102.33C217.093 102.49 217.217 102.63 217.41 102.75C218.637 103.523 219.837 104.493 221.01 105.66C220.463 111.867 223.4 115.5 229.82 116.56L252.33 144.49C253.077 145.417 252.853 145.907 251.66 145.96C248.76 146.09 243.85 146.84 241.75 143.99C233.937 133.417 226.303 122.517 218.85 111.29C218.537 109.317 217.907 108.063 216.96 107.53C214.573 106.183 212.42 104.833 210.5 103.48C210.244 103.299 210.039 103.055 209.906 102.771C209.773 102.488 209.715 102.174 209.74 101.862C209.764 101.549 209.869 101.249 210.044 100.989C210.219 100.729 210.459 100.519 210.74 100.38C213.187 99.1667 215.133 99.6833 216.58 101.93C216.64 102.023 216.703 102.03 216.77 101.95L216.96 101.73Z" fill="#E5E5E5"/>
<path d="M85.82 102.34C84.4133 105.927 82.53 108.32 80.17 109.52L80.07 100.47C80.0633 100.123 80.2333 99.9566 80.58 99.97L84.37 100.15C84.7833 100.163 85.0633 100.363 85.21 100.75L85.82 102.34Z" fill="#E5E5E5"/>
<path d="M75.8 108.32L75.89 116.78L55.82 144.92C55.5108 145.355 55.0965 145.706 54.6158 145.938C54.135 146.171 53.6033 146.278 53.07 146.25L45.57 145.88C45.4845 145.877 45.4016 145.85 45.3306 145.802C45.2595 145.755 45.2032 145.688 45.1679 145.61C45.1326 145.532 45.1197 145.446 45.1306 145.361C45.1416 145.276 45.176 145.196 45.23 145.13C54.23 133.837 63.2467 122.557 72.28 111.29C72.84 110.583 74.0133 109.593 75.8 108.32Z" fill="#E5E5E5"/>
<path d="M155.5 115.54L157.5 115.52V115.92L155.25 115.94L155.5 115.54Z" fill="#E5E5E5"/>
</g>
<defs>
<clipPath id="clip0_9_99">
<rect width="300" height="300" fill="white" transform="translate(0 -70)"/>
</clipPath>
</defs>
</svg>
